{"title":"Bounty Hunters 2011 .DvDRip.XviD.Ac3.Feel-Free","uid":7084805,"size":978131415,"categoryP":"video","categoryS":"movies","magnet":"?xt=urn:btih:f857838b3ceafd054fce09ed13a72b012e6574f1&amp;dn=Bounty+Hunters+2011+.DvDRip.XviD.Ac3.Feel-Free&amp;tr=udp%3A%2F%2Ftracker.openbittorrent.com%3A80&amp;tr=udp%3A%2F%2Fopen.demonii.com%3A1337&amp;tr=udp%3A%2F%2Ftracker.coppersurfer.tk%3A6969&amp;tr=udp%3A%2F%2Fexodus.desync.com%3A6969","seeders":1,"leechers":0,"uploader":"TheAsset","files":8,"time":1331147738,"description":"Genre:Action\nLanguage:English\nIMDb:http://www.imdb.com/title/tt1596565/\nSource:DVD Thanks!\nEncoder:Tony\n\nFormat : AVI\nFormat/Info : Audio Video Interleave\nFile size : 932 MiB\nDuration : 1h 19mn\nOverall bit rate : 1 639 Kbps\n\nVideo\nID : 0\nFormat : MPEG-4 Visual\nFormat profile : Advanced Simple@L5\nFormat settings, BVOP : 1\nFormat settings, QPel : No\nFormat settings, GMC : No warppoints\nFormat settings, Matrix : Default (H.263)\nCodec ID : XVID\nCodec ID/Hint : XviD\nDuration : 1h 19mn\nBit rate : 1 179 Kbps\nWidth : 640 pixels\nHeight : 360 pixels\nDisplay aspect ratio : 16:9\nFrame rate : 29.970 fps\nColor space : YUV\nChroma subsampling : 4:2:0\nBit depth : 8 bits\nScan type : Progressive\nCompression mode : Lossy\nBits/(Pixel*Frame) : 0.171\nStream size : 671 MiB (72%)\nWriting library : XviD 1.2.1 (UTC 2008-12-04)\n\nAudio\nID : 1\nFormat : AC-3\nFormat/Info : Audio Coding 3\nMode extension : CM (complete main)\nCodec ID : 2000\nDuration : 1h 19mn\nBit rate mode : Constant\nBit rate : 448 Kbps\nChannel(s) : 6 channels\nChannel positions : Front: L C R, Side: L R, LFE\nSampling rate : 48.0 KHz\nBit depth : 16 bits\nCompression mode : Lossy\nStream size : 255 MiB (27%)\nAlignment : Aligned on interleaves\nInterleave, duration : 33 ms (1.00 video frame)\nInterleave, preload duration : 512 ms\n\n\nPlot:\nA group of bail enforcement agents lock horns with the local mafia.","torrent":{"xt":"urn:btih:f857838b3ceafd054fce09ed13a72b012e6574f1","amp;dn":"Bounty+Hunters+2011+.DvDRip.XviD.Ac3.Feel-Free","amp;tr":["udp%3A%2F%2Ftracker.openbittorrent.com%3A80","udp%3A%2F%2Fopen.demonii.com%3A1337","udp%3A%2F%2Ftracker.coppersurfer.tk%3A6969","udp%3A%2F%2Fexodus.desync.com%3A6969"],"infoHash":"f857838b3ceafd054fce09ed13a72b012e6574f1","infoHashBuffer":{"type":"Buffer","data":[248,87,131,139,60,234,253,5,79,206,9,237,19,167,43,1,46,101,116,241]},"announce":[],"urlList":[]}}